<?xml version="1.0" encoding="UTF-8"?>
<svg xmlns="http://www.w3.org/2000/svg" version="1.1" viewBox="0 0 100 125">
  <defs>
    <style>
      .cls-1 {
        fill: #fff;
      }
    </style>
  </defs>
  <!-- Generator: Adobe Illustrator 28.7.7, SVG Export Plug-In . SVG Version: 1.2.0 Build 194)  -->
  <g>
    <g id="Layer_1">
      <g id="Layer_1-2" data-name="Layer_1">
        <path class="cls-1" d="M67.3,15.9c-1.3-1.5-3.5-1.7-5-.5-1.5,1.2-1.7,3.5-.5,5,0,.2.3.3.5.5l25.5,25.5H3.5c-2,0-3.5,1.8-3.4,3.7,0,1.8,1.5,3.3,3.4,3.4h84.3l-25.5,25.5c-1.3,1.4-1.3,3.6,0,5,1.4,1.4,3.6,1.4,5,0h0l31.6-31.6c1.4-1.3,1.4-3.5,0-4.9h0l-31.6-31.6Z"/>
      </g>
    </g>
  </g>
</svg>