<?xml version="1.0" encoding="UTF-8"?>
<svg xmlns="http://www.w3.org/2000/svg" version="1.1" viewBox="0 0 100 125">
  <defs>
    <style>
      .cls-1 {
        stroke-dasharray: 6.1 6.1;
        stroke-linecap: round;
      }

      .cls-1, .cls-2 {
        fill: none;
        stroke: #000;
        stroke-miterlimit: 10;
      }
    </style>
  </defs>
  <!-- Generator: Adobe Illustrator 28.7.7, SVG Export Plug-In . SVG Version: 1.2.0 Build 194)  -->
  <g>
    <g id="Layer_1">
      <g>
        <path class="cls-2" d="M68.1,85.3h-5.3c-1.3,0-2.3,1-2.3,2.3s1,2.3,2.3,2.3h10.8c1.3,0,2.3-1,2.3-2.3v-10.8c0-1.3-1-2.3-2.3-2.3s-2.3,1-2.3,2.3v5.2l-10.9-10.9c1.5-2.1,2.3-4.7,2.3-7.4s-.9-5.3-2.3-7.4l10.9-10.9v5.1c0,1.3,1,2.3,2.3,2.3s2.3-1,2.3-2.3v-10.8c0-1.3-1-2.3-2.3-2.3h-10.8c-1.3,0-2.3,1-2.3,2.3s1,2.3,2.3,2.3h5.2l-10.9,10.9c-2.1-1.5-4.7-2.3-7.4-2.3s-5.3.9-7.4,2.3l-11-10.9h5.2c1.3,0,2.3-1,2.3-2.3s-1-2.3-2.3-2.3h-10.8c-1.3,0-2.3,1-2.3,2.3v10.8c0,1.3,1,2.3,2.3,2.3s2.3-1,2.3-2.3v-5.2l10.9,10.9c-1.5,2.1-2.3,4.7-2.3,7.4s.9,5.3,2.3,7.4l-10.9,11v-5.2c0-1.3-1-2.3-2.3-2.3s-2.3,1-2.3,2.3v10.8c0,1.3,1,2.3,2.3,2.3h10.8c1.3,0,2.3-1,2.3-2.3s-1-2.3-2.3-2.3h-5.2l10.9-10.9c2.1,1.5,4.7,2.3,7.4,2.3s5.3-.9,7.4-2.3l11.1,10.9ZM41.3,63.6c0-4.6,3.8-8.4,8.4-8.4s8.4,3.8,8.4,8.4-3.8,8.4-8.4,8.4-8.4-3.7-8.4-8.4Z"/>
        <circle class="cls-1" cx="49.7" cy="63.6" r="46.5"/>
      </g>
    </g>
  </g>
</svg>