<?xml version="1.0" encoding="UTF-8"?>
<svg xmlns="http://www.w3.org/2000/svg" xmlns:svg="http://www.w3.org/2000/svg" xmlns:sodipodi="http://sodipodi.sourceforge.net/DTD/sodipodi-0.dtd" xmlns:rdf="http://www.w3.org/1999/02/22-rdf-syntax-ns#" xmlns:inkscape="http://www.inkscape.org/namespaces/inkscape" xmlns:dc="http://purl.org/dc/elements/1.1/" xmlns:cc="http://creativecommons.org/ns#" version="1.1" viewBox="0 0 39.6 49.5">
  <defs>
    <style>
      .cls-1, .cls-2 {
        stroke-linecap: round;
      }

      .cls-1, .cls-2, .cls-3 {
        fill: none;
        stroke: #000;
        stroke-miterlimit: 10;
      }

      .cls-2, .cls-3 {
        fill-rule: evenodd;
      }
    </style>
  </defs>
  <!-- Generator: Adobe Illustrator 28.7.7, SVG Export Plug-In . SVG Version: 1.2.0 Build 194)  -->
  <g>
    <g id="Layer_1">
      <path class="cls-3" d="M19.8,22c-.2,0-.4.1-.5.3l-1.3,2.6-2.9.4c-.3,0-.5.3-.5.6,0,.1,0,.2.2.3l2.1,2.1-.5,2.9c0,.3.1.6.4.6.1,0,.2,0,.3,0l2.6-1.4,2.6,1.4c.3.1.6,0,.7-.2,0-.1,0-.2,0-.3l-.5-2.9,2.1-2.1c.2-.2.2-.6,0-.8,0,0-.2-.1-.3-.2l-2.9-.4-1.3-2.6c0-.2-.3-.3-.5-.3Z"/>
      <path class="cls-3" d="M9.3,25.2c-.2,0-.4.1-.5.3l-1.3,2.6-2.9.4c-.3,0-.5.3-.5.6,0,.1,0,.2.2.3l2.1,2.1-.5,2.9c0,.3.1.6.4.6.1,0,.2,0,.3,0l2.6-1.4,2.6,1.4c.3.1.6,0,.7-.2,0-.1,0-.2,0-.3l-.5-2.9,2.1-2.1c.2-.2.2-.6,0-.8,0,0-.2-.1-.3-.2l-2.9-.4-1.3-2.6c0-.2-.3-.3-.5-.3Z"/>
      <path class="cls-3" d="M30.3,25.2c-.2,0-.4.1-.5.3l-1.3,2.6-2.9.4c-.3,0-.5.3-.5.6,0,.1,0,.2.2.3l2.1,2.1-.5,2.9c0,.3.1.6.4.6.1,0,.2,0,.3,0l2.6-1.4,2.6,1.4c.3.1.6,0,.7-.2,0-.1,0-.2,0-.3l-.5-2.9,2.1-2.1c.2-.2.2-.6,0-.8,0,0-.2-.1-.3-.2l-2.9-.4-1.3-2.6c0-.2-.3-.3-.5-.3Z"/>
      <path class="cls-2" d="M12.3,25.6c0-3.8,9.2-11.1,15,0"/>
      <circle class="cls-1" cx="19.8" cy="14.8" r="4.8"/>
    </g>
  </g>
</svg>